HIERARCHY
ROOT Hips
{
  OFFSET 7.333 -26.027 -164.856
  CHANNELS 6 Xposition Yposition Zposition Zrotation Xrotation Yrotation
  JOINT LeftUpLeg
  {
    OFFSET 10.092 0.000 0.000
    CHANNELS 6 Xposition Yposition Zposition Zrotation Xrotation Yrotation
    JOINT LeftLeg
    {
      OFFSET 0.000 -38.160 -0.000
    CHANNELS 6 Xposition Yposition Zposition Zrotation Xrotation Yrotation
      JOINT LeftFoot
      {
        OFFSET -0.000 -24.040 0.000
    CHANNELS 6 Xposition Yposition Zposition Zrotation Xrotation Yrotation
        End Site
        {
          OFFSET -0.000 0.000 12.945
        }
      }
    }
  }
  JOINT RightUpLeg
  {
    OFFSET -10.092 -0.000 0.000
    CHANNELS 6 Xposition Yposition Zposition Zrotation Xrotation Yrotation
    JOINT RightLeg
    {
      OFFSET 0.000 -33.046 0.000
    CHANNELS 6 Xposition Yposition Zposition Zrotation Xrotation Yrotation
      JOINT RightFoot
      {
        OFFSET 0.000 -22.031 -0.000
    CHANNELS 6 Xposition Yposition Zposition Zrotation Xrotation Yrotation
        End Site
        {
          OFFSET 0.000 -0.000 11.863
        }
      }
    }
  }
  JOINT Spine
  {
    OFFSET -0.000 16.511 0.000
    CHANNELS 6 Xposition Yposition Zposition Zrotation Xrotation Yrotation
    JOINT LeftShoulder
    {
      OFFSET 0 16.511 0
    CHANNELS 6 Xposition Yposition Zposition Zrotation Xrotation Yrotation
      JOINT LeftArm
      {
        OFFSET 16.337 0.000 0.000
    CHANNELS 6 Xposition Yposition Zposition Zrotation Xrotation Yrotation
        JOINT LeftForeArm
        {
          OFFSET 0.000 -24.030 0.000
    CHANNELS 6 Xposition Yposition Zposition Zrotation Xrotation Yrotation
          JOINT LeftHand
          {
            OFFSET 0.000 -17.629 -0.000
    CHANNELS 6 Xposition Yposition Zposition Zrotation Xrotation Yrotation
            End Site
            {
              OFFSET 0.000 -11.753 -0.000
            }
          }
        }
      }
    }
    JOINT RightShoulder
    {
      OFFSET 0 16.511 0
    CHANNELS 6 Xposition Yposition Zposition Zrotation Xrotation Yrotation
      JOINT RightArm
      {
        OFFSET -16.337 0.000 0.000
    CHANNELS 6 Xposition Yposition Zposition Zrotation Xrotation Yrotation
        JOINT RightForeArm
        {
          OFFSET -0.000 -19.534 0.000
    CHANNELS 6 Xposition Yposition Zposition Zrotation Xrotation Yrotation
          JOINT RightHand
          {
            OFFSET 0.000 -19.514 -0.000
    CHANNELS 6 Xposition Yposition Zposition Zrotation Xrotation Yrotation
            End Site
            {
              OFFSET 0.000 -13.010 -0.000
            }
          }
        }
      }
    }
    JOINT Neck
    {
      OFFSET -0.000 16.511 0.000
    CHANNELS 6 Xposition Yposition Zposition Zrotation Xrotation Yrotation
      JOINT Head
      {
        OFFSET -0.000 12.493 -0.000
    CHANNELS 6 Xposition Yposition Zposition Zrotation Xrotation Yrotation
        End Site
        {
          OFFSET -0.000 8.328 -0.000
        }
      }
    }
  }
}
MOTION
Frames:	11
Frame Time:	0.0333333
12.3121 29.7082 -167.807 -0.0883281 -3.1479 2.69325 8.88875 7.05891e-07 -4.38978e-06 -6.93468 15.4207 1.85237 5.25373e-07 -38.5191 1.12238e-06 4.69365 17.5807 0.601358 7.14784e-07 -37.1267 1.06512e-06 -1.61918e-08 5.46856e-07 -8.87152e-08 -8.88875 4.69906e-06 -4.48002e-06 -2.22269 23.5097 0.887008 4.77305e-07 -38.5191 4.82512e-06 -2.93681 -13.5917 -1.17189 -1.14776e-06 -35.5157 -2.33935e-06 1.74257e-08 -1.25903e-07 -8.30489e-09 4.91309e-07 19.2592 -4.53269e-06 -2.28718e-06 -1.38777e-07 -2.66889e-05 0 0 0 0 0 0 15.5341 19.2592 -1.03735e-05 10.4658 9.49046 50.8123 -7.1225e-06 -27.0241 2.04957e-06 -20.8951 -2.55021 1.25582 -6.45479e-06 -25.1934 4.78438e-07 -8.0789e-08 -6.34058e-08 -8.87252e-07 0 0 0 0 0 0 -15.5341 19.2592 -1.03785e-05 -57.7913 -25.986 20.0313 3.01506e-06 -19.0493 -6.56541e-06 -109.151 -15.6536 -152.569 -1.00363e-06 -25.5267 3.97541e-06 8.30933e-08 5.19759e-07 -2.91106e-07 6.46737e-07 19.2592 -1.03535e-05 -0.539895 -1.9755 -0.0186117 -9.91832e-08 19.6356 4.04507e-06 -1.53649e-08 3.6765e-09 -7.22264e-07 
12.6039 29.6545 -167.691 -0.153254 -3.17148 3.13358 8.88885 -2.63662e-08 2.59263e-06 -6.93613 15.5978 1.8735 3.1976e-07 -38.5191 5.84039e-06 4.69421 17.4574 0.595799 7.14784e-07 -37.1267 1.06512e-06 -1.61918e-08 5.46856e-07 -8.87152e-08 -8.88885 2.62733e-07 2.67762e-06 -2.26619 24.4473 0.938284 -1.45775e-06 -38.5191 -2.5501e-06 -3.00031 -15.2325 -1.33353 -1.14776e-06 -35.5157 -2.33935e-06 1.74257e-08 -1.25903e-07 -8.30489e-09 -1.07846e-06 19.2593 2.72594e-06 1.26571e-08 -2.13099e-07 9.06337e-06 0 0 0 0 0 0 15.5338 19.2593 6.81562e-06 10.0239 9.64536 52.0812 -2.80407e-06 -27.0678 6.62104e-07 -19.7063 -3.00823 1.00923 -2.55252e-06 -25.229 -4.92954e-06 9.28523e-08 -2.38851e-07 9.13573e-07 0 0 0 0 0 0 -15.5338 19.2594 6.91265e-06 -58.5825 -24.6848 18.9476 -1.48555e-06 -19.5451 6.53724e-06 -103.658 -6.5067 -171.431 -6.4061e-07 -25.3077 -9.81427e-06 -1.48823e-07 -2.75308e-07 7.32923e-07 1.53371e-07 19.2593 6.93732e-06 -0.51912 -1.93958 -0.01757 -8.8865e-07 19.6293 -3.21737e-06 3.17541e-08 6.39097e-08 -8.54253e-07 
12.8475 29.608 -167.505 -0.228733 -3.23065 3.69345 8.88864 -2.96514e-06 1.86673e-06 -7.18429 15.8038 1.96614 -1.37675e-06 -38.5191 3.73106e-06 5.46031 17.4099 0.434244 7.14784e-07 -37.1267 1.06512e-06 -1.61918e-08 5.46856e-07 -8.87152e-08 -8.88864 2.05727e-06 2.01445e-06 -2.38224 25.0311 1.00842 3.95343e-07 -38.5191 -6.43658e-06 -2.64842 -15.8059 -1.31212 -1.14776e-06 -35.5157 -2.33935e-06 1.74257e-08 -1.25903e-07 -8.30489e-09 -1.11879e-06 19.2594 2.05999e-06 -8.60712e-09 8.34805e-08 6.92455e-06 0 0 0 0 0 0 15.5333 19.2594 3.58692e-06 9.65394 9.74045 53.0427 -5.5878e-06 -27.0844 -1.94061e-06 -19.9735 -3.64342 0.657386 2.82402e-06 -25.2338 4.22505e-06 -1.80242e-07 3.52697e-07 -1.1296e-06 0 0 0 0 0 0 -15.5333 19.2594 3.85053e-06 -58.6273 -22.6221 17.9271 -1.04749e-06 -19.9119 -1.31798e-06 -99.7745 1.292 154.79 -3.97408e-06 -25.1714 -2.44941e-06 -3.39009e-07 8.67463e-08 -3.23631e-07 -7.63851e-07 19.2594 3.70639e-06 -0.625845 -2.00093 -0.021852 -2.23746e-06 19.6139 -6.76108e-06 3.27034e-08 1.37921e-09 3.07868e-09 
13.046 29.6404 -167.494 -0.207116 -3.00743 3.63277 8.88836 -5.92362e-07 -5.24138e-06 -6.86627 16.3684 1.94357 7.7598e-07 -38.5191 -4.53498e-06 4.25546 15.7691 0.633869 7.14784e-07 -37.1267 1.06512e-06 -1.61918e-08 5.46856e-07 -8.87152e-08 -8.88836 -2.19504e-06 -5.17468e-06 -2.67147 25.3111 1.14282 7.15813e-07 -38.5191 -9.59765e-07 -2.57726 -16.9296 -1.45706 -1.14776e-06 -35.5157 -2.33935e-06 1.74257e-08 -1.25903e-07 -8.30489e-09 -1.92343e-07 19.2593 -5.17943e-06 7.56015e-09 2.17575e-08 -2.55782e-06 0 0 0 0 0 0 15.5338 19.2593 -5.68896e-06 9.47336 9.39278 52.8602 2.3841e-07 -27.2855 3.45515e-07 -19.7982 -3.57986 0.704922 -3.21396e-06 -25.1018 2.81327e-06 2.09924e-07 1.37531e-07 -9.03035e-07 0 0 0 0 0 0 -15.5338 19.2593 -5.80366e-06 -58.1329 -21.7379 17.7573 2.68986e-06 -20.0968 -5.09154e-06 -97.7408 6.48405 131.461 -2.21401e-06 -25.1558 4.14339e-07 -1.21956e-07 -1.06377e-07 1.58692e-07 -1.42468e-07 19.2593 -5.72813e-06 -0.612709 -2.09025 -0.0223483 -8.0618e-08 19.6637 -5.92404e-06 4.86838e-08 -6.18706e-08 5.2867e-07 
13.162 29.6747 -167.276 -0.322962 -3.13585 3.36251 8.88867 -1.92145e-06 -2.18525e-06 -6.59577 16.8259 1.917 1.28729e-06 -38.5191 -2.04885e-06 3.48162 15.4124 0.752838 7.14784e-07 -37.1267 1.06512e-06 -1.61918e-08 5.46856e-07 -8.87152e-08 -8.88867 2.06272e-07 -2.01569e-06 -2.94753 24.8641 1.24024 -4.64786e-07 -38.5191 -3.08666e-06 -2.05237 -15.3483 -1.25367 -1.14776e-06 -35.5157 -2.33935e-06 1.74257e-08 -1.25903e-07 -8.30489e-09 -1.18263e-06 19.2593 -1.94837e-06 4.85711e-08 1.94132e-07 1.61994e-05 0 0 0 0 0 0 15.5339 19.2593 2.00903e-06 9.63001 9.54775 52.7835 1.05673e-06 -27.2767 -4.17982e-06 -19.4486 -3.66946 0.712813 7.76879e-08 -25.0342 -1.31371e-06 -8.91059e-08 -2.44331e-07 -2.42862e-08 0 0 0 0 0 0 -15.5339 19.2593 1.96481e-06 -57.576 -21.6871 18.0287 -8.40498e-07 -20.3186 7.92746e-06 -97.072 9.90664 121.835 -7.1967e-06 -25.1917 -3.94983e-07 4.67592e-08 -6.2754e-07 -2.52677e-09 -5.93372e-07 19.2593 1.93632e-06 -0.403399 -2.2142 -0.0155854 7.45822e-07 19.6742 -8.11734e-07 6.67504e-08 -5.30251e-08 -2.23111e-07 
13.2783 29.7038 -166.884 -0.459913 -3.56571 3.04576 8.88872 -2.89272e-06 -3.38386e-06 -6.65176 17.5 2.00843 3.86004e-07 -38.5191 -6.69091e-06 3.43468 15.4752 0.776511 7.14784e-07 -37.1267 1.06512e-06 -1.61918e-08 5.46856e-07 -8.87152e-08 -8.88872 1.59627e-06 -3.46192e-06 -2.91219 25.2614 1.24365 2.60816e-07 -38.5191 5.76376e-07 -2.18088 -14.6713 -1.22204 -1.14776e-06 -35.5157 -2.33935e-06 1.74257e-08 -1.25903e-07 -8.30489e-09 3.55437e-07 19.2588 -3.43965e-06 -2.25564e-08 -1.40071e-07 3.50807e-05 0 0 0 0 0 0 15.5338 19.2588 2.56868e-06 9.86505 10.1791 53.3795 -3.99315e-06 -27.3086 -3.39069e-06 -19.7221 -3.41274 0.745867 6.68464e-06 -24.9799 -1.9546e-06 -1.72387e-07 -1.06501e-07 -5.52593e-07 0 0 0 0 0 0 -15.5338 19.2588 2.6955e-06 -57.379 -22.5667 18.5793 5.11676e-07 -20.3375 1.95774e-06 -97.0228 10.8136 120.386 -7.45498e-06 -25.1237 -2.68448e-07 3.26942e-08 -6.36008e-07 -3.0892e-08 -7.15292e-07 19.2588 2.69347e-06 -0.600738 -2.29633 -0.0240707 4.17777e-07 19.656 -5.06226e-07 -1.09528e-08 3.87851e-08 -1.19203e-07 
13.4372 29.6351 -166.957 -0.432841 -3.08441 2.76726 8.88869 1.32205e-06 -5.17215e-06 -6.64717 17.3105 1.98599 -1.69978e-06 -38.5191 -2.75669e-06 2.7786 14.8277 0.913744 7.14784e-07 -37.1267 1.06512e-06 -1.61918e-08 5.46856e-07 -8.87152e-08 -8.88869 5.21313e-06 -5.41579e-06 -3.40794 25.5428 1.47086 7.81448e-07 -38.5191 -3.97956e-06 -1.83561 -16.6388 -1.40912 -1.14776e-06 -35.5157 -2.33935e-06 1.74257e-08 -1.25903e-07 -8.30489e-09 -2.04036e-07 19.2584 -5.38355e-06 -6.05084e-08 -2.38431e-07 3.38971e-06 0 0 0 0 0 0 15.5339 19.2584 -4.60331e-06 9.74759 9.71849 52.8955 7.38944e-06 -27.2442 6.38663e-06 -18.7322 -4.16799 0.619884 3.22743e-06 -24.9803 3.55577e-06 3.73706e-07 -4.54364e-08 1.7987e-06 0 0 0 0 0 0 -15.5339 19.2584 -4.69457e-06 -58.2699 -24.2229 18.8916 -1.45117e-06 -20.2515 -1.35073e-06 -97.4647 11.3264 121.162 1.28421e-06 -24.9792 8.36251e-07 1.07231e-07 -3.86236e-07 -8.01085e-08 7.12086e-07 19.2584 -4.6443e-06 -0.463881 -2.05923 -0.0166682 2.69757e-07 19.5879 -8.95812e-06 7.97851e-08 1.74956e-10 -1.11345e-07 
13.6324 29.4379 -167.013 -0.325442 -2.5271 2.4135 8.88873 -4.08765e-06 -1.16106e-06 -7.15748 15.7024 1.94649 2.66724e-07 -38.5191 9.64926e-06 2.98926 17.1455 1.15128 7.14784e-07 -37.1267 1.06512e-06 -1.61918e-08 5.46856e-07 -8.87152e-08 -8.88873 6.33556e-07 -1.19168e-06 -4.52443 24.3693 1.87007 -1.61626e-07 -38.5191 -1.10493e-06 -0.351771 -15.4868 -1.19645 -1.14776e-06 -35.5157 -2.33935e-06 1.74257e-08 -1.25903e-07 -8.30489e-09 1.3338e-07 19.258 -1.12348e-06 3.98865e-08 -3.95749e-08 2.47487e-05 0 0 0 0 0 0 15.5338 19.258 6.90431e-06 9.59804 9.47127 52.8926 2.1057e-06 -27.0553 5.51435e-06 -18.2246 -4.03325 0.721537 5.4999e-06 -24.9805 2.47072e-06 6.55006e-07 1.0158e-07 1.77292e-06 0 0 0 0 0 0 -15.5338 19.258 7.05416e-06 -58.1186 -25.4858 19.5686 -1.32496e-06 -19.8788 9.9236e-06 -99.1337 8.97262 130.416 4.34141e-06 -24.8707 8.80785e-07 4.96521e-08 7.47934e-07 2.31761e-07 -2.56716e-07 19.258 7.04792e-06 -0.407125 -1.92708 -0.0136905 6.01715e-07 19.6346 -2.60316e-06 5.022e-09 2.62783e-07 5.71691e-07 
13.6971 29.3239 -166.997 -0.388291 -2.05284 2.17593 8.88866 -3.35925e-06 -4.19892e-06 -7.32993 14.5879 1.85564 -1.73186e-06 -38.5191 -4.37165e-06 3.17701 18.6303 1.25256 7.14784e-07 -37.1267 1.06512e-06 -1.61918e-08 5.46856e-07 -8.87152e-08 -8.88866 -1.31829e-06 -4.23961e-06 -5.49933 22.9488 2.14983 -9.76394e-07 -38.5191 -2.44376e-06 1.6876 -13.4365 -0.785168 -1.14776e-06 -35.5157 -2.33935e-06 1.74257e-08 -1.25903e-07 -8.30489e-09 3.0755e-07 19.258 -4.3268e-06 1.11187e-08 1.26625e-07 -3.75509e-05 0 0 0 0 0 0 15.5339 19.258 -3.54316e-06 9.35688 9.20618 53.0685 1.16241e-06 -27.1518 -6.29868e-06 -17.1144 -4.65694 0.621063 -5.30613e-06 -24.9743 -1.97997e-06 -3.6988e-08 1.42018e-07 1.40908e-08 0 0 0 0 0 0 -15.5339 19.258 -3.49356e-06 -56.8813 -26.3276 20.6911 -1.69708e-06 -19.5389 -8.54671e-06 -102.444 3.74009 151.943 -3.42116e-06 -24.7683 -5.652e-06 -5.20698e-07 -4.16618e-07 5.98578e-07 -9.9158e-07 19.258 -3.48374e-06 -0.383665 -1.5552 -0.0104126 8.60441e-07 19.638 -1.00716e-05 1.9924e-08 -1.05345e-07 -3.63946e-07 
13.7307 29.1921 -166.84 -0.378687 -1.93059 1.67183 8.88875 -3.0102e-06 -8.71988e-06 -7.15333 14.1206 1.75373 -1.41326e-07 -38.5191 1.76886e-06 2.27273 19.7431 1.57839 7.14784e-07 -37.1267 1.06512e-06 -1.61918e-08 5.46856e-07 -8.87152e-08 -8.88875 2.28704e-06 -8.69349e-06 -6.12619 21.4283 2.24554 1.32526e-07 -38.5191 7.90644e-06 2.76038 -10.1199 -0.517177 -1.14776e-06 -35.5157 -2.33935e-06 1.74257e-08 -1.25903e-07 -8.30489e-09 -9.98769e-07 19.2587 -8.76476e-06 5.0443e-09 -5.63963e-09 -4.55607e-05 0 0 0 0 0 0 15.5335 19.2587 -7.80214e-06 9.38891 9.5723 53.7835 -4.29766e-06 -26.9754 -3.03712e-06 -17.6932 -5.58164 0.282554 -9.36112e-07 -24.9839 4.40991e-06 4.99482e-08 -1.25021e-07 -1.96797e-06 0 0 0 0 0 0 -15.5335 19.2587 -7.69266e-06 -56.7041 -28.3527 21.7618 1.46899e-06 -19.2485 3.80028e-06 -105.192 -3.11749 177.261 -2.90866e-07 -24.54 -1.12096e-05 2.44461e-07 -2.96444e-07 1.25289e-06 -6.49266e-08 19.2587 -7.77263e-06 -0.125972 -1.46333 -0.00321639 -3.89848e-08 19.6217 1.95125e-06 -9.48548e-09 1.02897e-07 -4.22642e-07 
13.7433 29.1254 -166.507 -0.428462 -2.08053 1.22984 8.88852 1.1766e-07 7.43324e-08 -7.07566 14.1807 1.74173 1.7948e-06 -38.5191 -4.57996e-07 1.80318 20.4961 1.7743 7.14784e-07 -37.1267 1.06512e-06 -1.61918e-08 5.46856e-07 -8.87152e-08 -8.88852 1.7058e-06 2.90212e-08 -6.29059 19.9316 2.15209 -8.1298e-07 -38.5191 -3.1657e-06 3.07344 -5.80527 -0.287387 -1.14776e-06 -35.5157 -2.33935e-06 1.74257e-08 -1.25903e-07 -8.30489e-09 1.02365e-06 19.259 8.96344e-08 -3.61856e-08 1.94262e-08 6.86906e-06 0 0 0 0 0 0 15.5335 19.259 1.9022e-06 9.31937 9.78956 54.4553 6.34105e-06 -26.9947 4.36437e-06 -17.2759 -6.19634 0.121272 7.33609e-06 -25.1229 3.56345e-06 1.8745e-07 2.29012e-07 -1.89822e-06 0 0 0 0 0 0 -15.5335 19.259 1.73498e-06 -55.5076 -30.6973 23.6339 9.55925e-07 -19.0537 -1.26334e-06 -109.268 -11.5165 -161.217 -8.07674e-07 -24.2462 1.5191e-06 1.33579e-07 4.65056e-07 -7.64918e-07 -3.25487e-07 19.259 1.8217e-06 -0.310156 -1.5051 -0.00814656 -3.46023e-07 19.6944 1.13119e-06 6.22941e-08 -1.64324e-09 1.26519e-07 
